<mxfile host="app.diagrams.net" modified="2023-10-26T11:33:45.325Z" agent="Mozilla/5.0 (Windows NT 10.0; Win64; x64; rv:109.0) Gecko/20100101 Firefox/119.0" etag="sXsYDs2FjQJ5BBaqV5Ix" version="22.0.8" type="github">
  <diagram id="C5RBs43oDa-KdzZeNtuy" name="Page-1">
    <mxGraphModel dx="1615" dy="743" grid="1" gridSize="10" guides="1" tooltips="1" connect="1" arrows="1" fold="1" page="1" pageScale="1" pageWidth="827" pageHeight="1169" math="0" shadow="0">
      <root>
        <mxCell id="WIyWlLk6GJQsqaUBKTNV-0" />
        <mxCell id="WIyWlLk6GJQsqaUBKTNV-1" parent="WIyWlLk6GJQsqaUBKTNV-0" />
        <mxCell id="mGhn0mZwZCy-EaWcP4GE-3" style="edgeStyle=orthogonalEdgeStyle;rounded=0;orthogonalLoop=1;jettySize=auto;html=1;exitX=1;exitY=0.5;exitDx=0;exitDy=0;entryX=0;entryY=0.5;entryDx=0;entryDy=0;" edge="1" parent="WIyWlLk6GJQsqaUBKTNV-1" source="mGhn0mZwZCy-EaWcP4GE-0" target="mGhn0mZwZCy-EaWcP4GE-2">
          <mxGeometry relative="1" as="geometry" />
        </mxCell>
        <mxCell id="mGhn0mZwZCy-EaWcP4GE-0" value="B" style="ellipse;whiteSpace=wrap;html=1;aspect=fixed;" vertex="1" parent="WIyWlLk6GJQsqaUBKTNV-1">
          <mxGeometry x="70" y="300" width="80" height="80" as="geometry" />
        </mxCell>
        <mxCell id="mGhn0mZwZCy-EaWcP4GE-7" style="edgeStyle=orthogonalEdgeStyle;rounded=0;orthogonalLoop=1;jettySize=auto;html=1;exitX=1;exitY=0.5;exitDx=0;exitDy=0;entryX=0;entryY=0.5;entryDx=0;entryDy=0;" edge="1" parent="WIyWlLk6GJQsqaUBKTNV-1" source="mGhn0mZwZCy-EaWcP4GE-1" target="mGhn0mZwZCy-EaWcP4GE-5">
          <mxGeometry relative="1" as="geometry" />
        </mxCell>
        <mxCell id="mGhn0mZwZCy-EaWcP4GE-8" value="[choose sign up]" style="edgeLabel;html=1;align=center;verticalAlign=middle;resizable=0;points=[];" vertex="1" connectable="0" parent="mGhn0mZwZCy-EaWcP4GE-7">
          <mxGeometry x="-0.253" y="-3" relative="1" as="geometry">
            <mxPoint x="17" y="-3" as="offset" />
          </mxGeometry>
        </mxCell>
        <mxCell id="mGhn0mZwZCy-EaWcP4GE-12" style="edgeStyle=orthogonalEdgeStyle;rounded=0;orthogonalLoop=1;jettySize=auto;html=1;exitX=0.5;exitY=1;exitDx=0;exitDy=0;entryX=0;entryY=0.5;entryDx=0;entryDy=0;" edge="1" parent="WIyWlLk6GJQsqaUBKTNV-1" source="mGhn0mZwZCy-EaWcP4GE-1" target="mGhn0mZwZCy-EaWcP4GE-11">
          <mxGeometry relative="1" as="geometry" />
        </mxCell>
        <mxCell id="mGhn0mZwZCy-EaWcP4GE-13" value="[choose e-mail-login]" style="edgeLabel;html=1;align=center;verticalAlign=middle;resizable=0;points=[];" vertex="1" connectable="0" parent="mGhn0mZwZCy-EaWcP4GE-12">
          <mxGeometry x="0.4609" y="2" relative="1" as="geometry">
            <mxPoint as="offset" />
          </mxGeometry>
        </mxCell>
        <mxCell id="mGhn0mZwZCy-EaWcP4GE-15" style="edgeStyle=orthogonalEdgeStyle;rounded=0;orthogonalLoop=1;jettySize=auto;html=1;exitX=0.5;exitY=1;exitDx=0;exitDy=0;entryX=1;entryY=0.5;entryDx=0;entryDy=0;" edge="1" parent="WIyWlLk6GJQsqaUBKTNV-1" source="mGhn0mZwZCy-EaWcP4GE-1" target="mGhn0mZwZCy-EaWcP4GE-14">
          <mxGeometry relative="1" as="geometry" />
        </mxCell>
        <mxCell id="mGhn0mZwZCy-EaWcP4GE-16" value="[choose 3rd-party login]" style="edgeLabel;html=1;align=center;verticalAlign=middle;resizable=0;points=[];" vertex="1" connectable="0" parent="mGhn0mZwZCy-EaWcP4GE-15">
          <mxGeometry x="0.5587" y="2" relative="1" as="geometry">
            <mxPoint x="22" y="-2" as="offset" />
          </mxGeometry>
        </mxCell>
        <mxCell id="mGhn0mZwZCy-EaWcP4GE-59" style="edgeStyle=orthogonalEdgeStyle;rounded=0;orthogonalLoop=1;jettySize=auto;html=1;exitX=0.5;exitY=0;exitDx=0;exitDy=0;entryX=0;entryY=0.5;entryDx=0;entryDy=0;" edge="1" parent="WIyWlLk6GJQsqaUBKTNV-1" source="mGhn0mZwZCy-EaWcP4GE-1" target="mGhn0mZwZCy-EaWcP4GE-58">
          <mxGeometry relative="1" as="geometry" />
        </mxCell>
        <mxCell id="mGhn0mZwZCy-EaWcP4GE-60" value="[cancel login]" style="edgeLabel;html=1;align=center;verticalAlign=middle;resizable=0;points=[];" vertex="1" connectable="0" parent="mGhn0mZwZCy-EaWcP4GE-59">
          <mxGeometry x="-0.7325" y="-1" relative="1" as="geometry">
            <mxPoint as="offset" />
          </mxGeometry>
        </mxCell>
        <mxCell id="mGhn0mZwZCy-EaWcP4GE-1" value="" style="rhombus;whiteSpace=wrap;html=1;" vertex="1" parent="WIyWlLk6GJQsqaUBKTNV-1">
          <mxGeometry x="430" y="300" width="80" height="80" as="geometry" />
        </mxCell>
        <mxCell id="mGhn0mZwZCy-EaWcP4GE-4" style="edgeStyle=orthogonalEdgeStyle;rounded=0;orthogonalLoop=1;jettySize=auto;html=1;exitX=1;exitY=0.5;exitDx=0;exitDy=0;entryX=0;entryY=0.5;entryDx=0;entryDy=0;" edge="1" parent="WIyWlLk6GJQsqaUBKTNV-1" source="mGhn0mZwZCy-EaWcP4GE-2" target="mGhn0mZwZCy-EaWcP4GE-1">
          <mxGeometry relative="1" as="geometry" />
        </mxCell>
        <mxCell id="mGhn0mZwZCy-EaWcP4GE-2" value="Get to Login/SignUp Page" style="rounded=1;whiteSpace=wrap;html=1;" vertex="1" parent="WIyWlLk6GJQsqaUBKTNV-1">
          <mxGeometry x="270" y="310" width="120" height="60" as="geometry" />
        </mxCell>
        <mxCell id="mGhn0mZwZCy-EaWcP4GE-10" style="edgeStyle=orthogonalEdgeStyle;rounded=0;orthogonalLoop=1;jettySize=auto;html=1;exitX=0.5;exitY=0;exitDx=0;exitDy=0;entryX=0.5;entryY=1;entryDx=0;entryDy=0;" edge="1" parent="WIyWlLk6GJQsqaUBKTNV-1" source="mGhn0mZwZCy-EaWcP4GE-5" target="mGhn0mZwZCy-EaWcP4GE-9">
          <mxGeometry relative="1" as="geometry" />
        </mxCell>
        <mxCell id="mGhn0mZwZCy-EaWcP4GE-5" value="" style="rhombus;whiteSpace=wrap;html=1;" vertex="1" parent="WIyWlLk6GJQsqaUBKTNV-1">
          <mxGeometry x="640" y="300" width="80" height="80" as="geometry" />
        </mxCell>
        <mxCell id="mGhn0mZwZCy-EaWcP4GE-53" style="edgeStyle=orthogonalEdgeStyle;rounded=0;orthogonalLoop=1;jettySize=auto;html=1;exitX=1;exitY=0.5;exitDx=0;exitDy=0;entryX=0.5;entryY=0;entryDx=0;entryDy=0;" edge="1" parent="WIyWlLk6GJQsqaUBKTNV-1" source="mGhn0mZwZCy-EaWcP4GE-9" target="mGhn0mZwZCy-EaWcP4GE-49">
          <mxGeometry relative="1" as="geometry" />
        </mxCell>
        <mxCell id="mGhn0mZwZCy-EaWcP4GE-9" value="C" style="ellipse;whiteSpace=wrap;html=1;aspect=fixed;" vertex="1" parent="WIyWlLk6GJQsqaUBKTNV-1">
          <mxGeometry x="640" y="160" width="80" height="80" as="geometry" />
        </mxCell>
        <mxCell id="mGhn0mZwZCy-EaWcP4GE-21" style="edgeStyle=orthogonalEdgeStyle;rounded=0;orthogonalLoop=1;jettySize=auto;html=1;exitX=1;exitY=0.5;exitDx=0;exitDy=0;entryX=0;entryY=0.5;entryDx=0;entryDy=0;" edge="1" parent="WIyWlLk6GJQsqaUBKTNV-1" source="mGhn0mZwZCy-EaWcP4GE-11" target="mGhn0mZwZCy-EaWcP4GE-20">
          <mxGeometry relative="1" as="geometry" />
        </mxCell>
        <mxCell id="mGhn0mZwZCy-EaWcP4GE-11" value="Enter e-mail" style="rounded=1;whiteSpace=wrap;html=1;" vertex="1" parent="WIyWlLk6GJQsqaUBKTNV-1">
          <mxGeometry x="670" y="480" width="120" height="60" as="geometry" />
        </mxCell>
        <mxCell id="mGhn0mZwZCy-EaWcP4GE-52" style="edgeStyle=orthogonalEdgeStyle;rounded=0;orthogonalLoop=1;jettySize=auto;html=1;exitX=0.5;exitY=1;exitDx=0;exitDy=0;entryX=0.5;entryY=1;entryDx=0;entryDy=0;" edge="1" parent="WIyWlLk6GJQsqaUBKTNV-1" source="mGhn0mZwZCy-EaWcP4GE-14" target="mGhn0mZwZCy-EaWcP4GE-49">
          <mxGeometry relative="1" as="geometry">
            <Array as="points">
              <mxPoint x="230" y="1080" />
              <mxPoint x="2140" y="1080" />
            </Array>
          </mxGeometry>
        </mxCell>
        <mxCell id="mGhn0mZwZCy-EaWcP4GE-14" value="Login with 3rd-Party" style="rounded=1;whiteSpace=wrap;html=1;" vertex="1" parent="WIyWlLk6GJQsqaUBKTNV-1">
          <mxGeometry x="170" y="480" width="120" height="60" as="geometry" />
        </mxCell>
        <mxCell id="mGhn0mZwZCy-EaWcP4GE-23" style="edgeStyle=orthogonalEdgeStyle;rounded=0;orthogonalLoop=1;jettySize=auto;html=1;exitX=0.5;exitY=0;exitDx=0;exitDy=0;entryX=1;entryY=0.5;entryDx=0;entryDy=0;" edge="1" parent="WIyWlLk6GJQsqaUBKTNV-1" source="mGhn0mZwZCy-EaWcP4GE-17" target="mGhn0mZwZCy-EaWcP4GE-5">
          <mxGeometry relative="1" as="geometry" />
        </mxCell>
        <mxCell id="mGhn0mZwZCy-EaWcP4GE-24" value="[sign up instead]" style="edgeLabel;html=1;align=center;verticalAlign=middle;resizable=0;points=[];" vertex="1" connectable="0" parent="mGhn0mZwZCy-EaWcP4GE-23">
          <mxGeometry x="-0.8448" y="3" relative="1" as="geometry">
            <mxPoint as="offset" />
          </mxGeometry>
        </mxCell>
        <mxCell id="mGhn0mZwZCy-EaWcP4GE-27" style="edgeStyle=orthogonalEdgeStyle;rounded=0;orthogonalLoop=1;jettySize=auto;html=1;exitX=0.5;exitY=1;exitDx=0;exitDy=0;entryX=0.5;entryY=0;entryDx=0;entryDy=0;" edge="1" parent="WIyWlLk6GJQsqaUBKTNV-1" source="mGhn0mZwZCy-EaWcP4GE-17" target="mGhn0mZwZCy-EaWcP4GE-25">
          <mxGeometry relative="1" as="geometry" />
        </mxCell>
        <mxCell id="mGhn0mZwZCy-EaWcP4GE-28" value="[password forgotten]" style="edgeLabel;html=1;align=center;verticalAlign=middle;resizable=0;points=[];" vertex="1" connectable="0" parent="mGhn0mZwZCy-EaWcP4GE-27">
          <mxGeometry x="-0.4227" y="-1" relative="1" as="geometry">
            <mxPoint as="offset" />
          </mxGeometry>
        </mxCell>
        <mxCell id="mGhn0mZwZCy-EaWcP4GE-36" style="edgeStyle=orthogonalEdgeStyle;rounded=0;orthogonalLoop=1;jettySize=auto;html=1;exitX=1;exitY=0.5;exitDx=0;exitDy=0;entryX=0;entryY=0.5;entryDx=0;entryDy=0;" edge="1" parent="WIyWlLk6GJQsqaUBKTNV-1" source="mGhn0mZwZCy-EaWcP4GE-17" target="mGhn0mZwZCy-EaWcP4GE-35">
          <mxGeometry relative="1" as="geometry" />
        </mxCell>
        <mxCell id="mGhn0mZwZCy-EaWcP4GE-37" value="[password known]" style="edgeLabel;html=1;align=center;verticalAlign=middle;resizable=0;points=[];" vertex="1" connectable="0" parent="mGhn0mZwZCy-EaWcP4GE-36">
          <mxGeometry x="-0.1638" y="-2" relative="1" as="geometry">
            <mxPoint as="offset" />
          </mxGeometry>
        </mxCell>
        <mxCell id="mGhn0mZwZCy-EaWcP4GE-17" value="" style="rhombus;whiteSpace=wrap;html=1;" vertex="1" parent="WIyWlLk6GJQsqaUBKTNV-1">
          <mxGeometry x="1070" y="470" width="80" height="80" as="geometry" />
        </mxCell>
        <mxCell id="mGhn0mZwZCy-EaWcP4GE-22" style="edgeStyle=orthogonalEdgeStyle;rounded=0;orthogonalLoop=1;jettySize=auto;html=1;exitX=1;exitY=0.5;exitDx=0;exitDy=0;entryX=0;entryY=0.5;entryDx=0;entryDy=0;" edge="1" parent="WIyWlLk6GJQsqaUBKTNV-1" source="mGhn0mZwZCy-EaWcP4GE-20" target="mGhn0mZwZCy-EaWcP4GE-17">
          <mxGeometry relative="1" as="geometry" />
        </mxCell>
        <mxCell id="mGhn0mZwZCy-EaWcP4GE-20" value="Enter password" style="rounded=1;whiteSpace=wrap;html=1;" vertex="1" parent="WIyWlLk6GJQsqaUBKTNV-1">
          <mxGeometry x="890" y="480" width="120" height="60" as="geometry" />
        </mxCell>
        <mxCell id="mGhn0mZwZCy-EaWcP4GE-30" style="edgeStyle=orthogonalEdgeStyle;rounded=0;orthogonalLoop=1;jettySize=auto;html=1;exitX=0.5;exitY=1;exitDx=0;exitDy=0;entryX=0.5;entryY=0;entryDx=0;entryDy=0;" edge="1" parent="WIyWlLk6GJQsqaUBKTNV-1" source="mGhn0mZwZCy-EaWcP4GE-25" target="mGhn0mZwZCy-EaWcP4GE-29">
          <mxGeometry relative="1" as="geometry" />
        </mxCell>
        <mxCell id="mGhn0mZwZCy-EaWcP4GE-25" value="" style="rhombus;whiteSpace=wrap;html=1;" vertex="1" parent="WIyWlLk6GJQsqaUBKTNV-1">
          <mxGeometry x="1070" y="640" width="80" height="80" as="geometry" />
        </mxCell>
        <mxCell id="mGhn0mZwZCy-EaWcP4GE-32" style="edgeStyle=orthogonalEdgeStyle;rounded=0;orthogonalLoop=1;jettySize=auto;html=1;exitX=0.5;exitY=1;exitDx=0;exitDy=0;entryX=0.5;entryY=0;entryDx=0;entryDy=0;" edge="1" parent="WIyWlLk6GJQsqaUBKTNV-1" source="mGhn0mZwZCy-EaWcP4GE-29" target="mGhn0mZwZCy-EaWcP4GE-31">
          <mxGeometry relative="1" as="geometry" />
        </mxCell>
        <mxCell id="mGhn0mZwZCy-EaWcP4GE-29" value="Send Request Mail" style="rounded=1;whiteSpace=wrap;html=1;" vertex="1" parent="WIyWlLk6GJQsqaUBKTNV-1">
          <mxGeometry x="1050" y="800" width="120" height="60" as="geometry" />
        </mxCell>
        <mxCell id="mGhn0mZwZCy-EaWcP4GE-33" style="edgeStyle=orthogonalEdgeStyle;rounded=0;orthogonalLoop=1;jettySize=auto;html=1;exitX=0;exitY=0.5;exitDx=0;exitDy=0;entryX=0;entryY=0.5;entryDx=0;entryDy=0;" edge="1" parent="WIyWlLk6GJQsqaUBKTNV-1" source="mGhn0mZwZCy-EaWcP4GE-31" target="mGhn0mZwZCy-EaWcP4GE-25">
          <mxGeometry relative="1" as="geometry">
            <Array as="points">
              <mxPoint x="1000" y="990" />
              <mxPoint x="1000" y="680" />
            </Array>
          </mxGeometry>
        </mxCell>
        <mxCell id="mGhn0mZwZCy-EaWcP4GE-34" value="[mail didn&#39;t arrive]" style="edgeLabel;html=1;align=center;verticalAlign=middle;resizable=0;points=[];" vertex="1" connectable="0" parent="mGhn0mZwZCy-EaWcP4GE-33">
          <mxGeometry x="0.143" y="3" relative="1" as="geometry">
            <mxPoint as="offset" />
          </mxGeometry>
        </mxCell>
        <mxCell id="mGhn0mZwZCy-EaWcP4GE-38" style="edgeStyle=orthogonalEdgeStyle;rounded=0;orthogonalLoop=1;jettySize=auto;html=1;exitX=1;exitY=0.5;exitDx=0;exitDy=0;entryX=0.5;entryY=1;entryDx=0;entryDy=0;" edge="1" parent="WIyWlLk6GJQsqaUBKTNV-1" source="mGhn0mZwZCy-EaWcP4GE-31" target="mGhn0mZwZCy-EaWcP4GE-35">
          <mxGeometry relative="1" as="geometry" />
        </mxCell>
        <mxCell id="mGhn0mZwZCy-EaWcP4GE-39" value="[password resetted]" style="edgeLabel;html=1;align=center;verticalAlign=middle;resizable=0;points=[];" vertex="1" connectable="0" parent="mGhn0mZwZCy-EaWcP4GE-38">
          <mxGeometry x="-0.8283" y="2" relative="1" as="geometry">
            <mxPoint x="35" y="2" as="offset" />
          </mxGeometry>
        </mxCell>
        <mxCell id="mGhn0mZwZCy-EaWcP4GE-31" value="" style="rhombus;whiteSpace=wrap;html=1;" vertex="1" parent="WIyWlLk6GJQsqaUBKTNV-1">
          <mxGeometry x="1070" y="950" width="80" height="80" as="geometry" />
        </mxCell>
        <mxCell id="mGhn0mZwZCy-EaWcP4GE-41" style="edgeStyle=orthogonalEdgeStyle;rounded=0;orthogonalLoop=1;jettySize=auto;html=1;exitX=1;exitY=0.5;exitDx=0;exitDy=0;entryX=0;entryY=0.5;entryDx=0;entryDy=0;" edge="1" parent="WIyWlLk6GJQsqaUBKTNV-1" source="mGhn0mZwZCy-EaWcP4GE-35" target="mGhn0mZwZCy-EaWcP4GE-40">
          <mxGeometry relative="1" as="geometry" />
        </mxCell>
        <mxCell id="mGhn0mZwZCy-EaWcP4GE-35" value="" style="rhombus;whiteSpace=wrap;html=1;" vertex="1" parent="WIyWlLk6GJQsqaUBKTNV-1">
          <mxGeometry x="1330" y="470" width="80" height="80" as="geometry" />
        </mxCell>
        <mxCell id="mGhn0mZwZCy-EaWcP4GE-44" style="edgeStyle=orthogonalEdgeStyle;rounded=0;orthogonalLoop=1;jettySize=auto;html=1;exitX=1;exitY=0.5;exitDx=0;exitDy=0;entryX=0;entryY=0.5;entryDx=0;entryDy=0;" edge="1" parent="WIyWlLk6GJQsqaUBKTNV-1" source="mGhn0mZwZCy-EaWcP4GE-40" target="mGhn0mZwZCy-EaWcP4GE-42">
          <mxGeometry relative="1" as="geometry" />
        </mxCell>
        <mxCell id="mGhn0mZwZCy-EaWcP4GE-40" value="Enter password" style="rounded=1;whiteSpace=wrap;html=1;" vertex="1" parent="WIyWlLk6GJQsqaUBKTNV-1">
          <mxGeometry x="1500" y="480" width="120" height="60" as="geometry" />
        </mxCell>
        <mxCell id="mGhn0mZwZCy-EaWcP4GE-46" style="edgeStyle=orthogonalEdgeStyle;rounded=0;orthogonalLoop=1;jettySize=auto;html=1;exitX=1;exitY=0.5;exitDx=0;exitDy=0;entryX=0;entryY=0.5;entryDx=0;entryDy=0;" edge="1" parent="WIyWlLk6GJQsqaUBKTNV-1" source="mGhn0mZwZCy-EaWcP4GE-42" target="mGhn0mZwZCy-EaWcP4GE-45">
          <mxGeometry relative="1" as="geometry" />
        </mxCell>
        <mxCell id="mGhn0mZwZCy-EaWcP4GE-42" value="click sign-in" style="rounded=1;whiteSpace=wrap;html=1;" vertex="1" parent="WIyWlLk6GJQsqaUBKTNV-1">
          <mxGeometry x="1700" y="480" width="120" height="60" as="geometry" />
        </mxCell>
        <mxCell id="mGhn0mZwZCy-EaWcP4GE-47" style="edgeStyle=orthogonalEdgeStyle;rounded=0;orthogonalLoop=1;jettySize=auto;html=1;exitX=0.5;exitY=0;exitDx=0;exitDy=0;entryX=0.5;entryY=0;entryDx=0;entryDy=0;" edge="1" parent="WIyWlLk6GJQsqaUBKTNV-1" source="mGhn0mZwZCy-EaWcP4GE-45" target="mGhn0mZwZCy-EaWcP4GE-35">
          <mxGeometry relative="1" as="geometry" />
        </mxCell>
        <mxCell id="mGhn0mZwZCy-EaWcP4GE-48" value="[sign in attempt failed]" style="edgeLabel;html=1;align=center;verticalAlign=middle;resizable=0;points=[];" vertex="1" connectable="0" parent="mGhn0mZwZCy-EaWcP4GE-47">
          <mxGeometry x="-0.5637" relative="1" as="geometry">
            <mxPoint as="offset" />
          </mxGeometry>
        </mxCell>
        <mxCell id="mGhn0mZwZCy-EaWcP4GE-50" style="edgeStyle=orthogonalEdgeStyle;rounded=0;orthogonalLoop=1;jettySize=auto;html=1;exitX=1;exitY=0.5;exitDx=0;exitDy=0;entryX=0;entryY=0.5;entryDx=0;entryDy=0;" edge="1" parent="WIyWlLk6GJQsqaUBKTNV-1" source="mGhn0mZwZCy-EaWcP4GE-45" target="mGhn0mZwZCy-EaWcP4GE-49">
          <mxGeometry relative="1" as="geometry" />
        </mxCell>
        <mxCell id="mGhn0mZwZCy-EaWcP4GE-51" value="[successful sign in]" style="edgeLabel;html=1;align=center;verticalAlign=middle;resizable=0;points=[];" vertex="1" connectable="0" parent="mGhn0mZwZCy-EaWcP4GE-50">
          <mxGeometry x="-0.2043" y="-1" relative="1" as="geometry">
            <mxPoint x="14" y="-1" as="offset" />
          </mxGeometry>
        </mxCell>
        <mxCell id="mGhn0mZwZCy-EaWcP4GE-45" value="" style="rhombus;whiteSpace=wrap;html=1;" vertex="1" parent="WIyWlLk6GJQsqaUBKTNV-1">
          <mxGeometry x="1880" y="470" width="80" height="80" as="geometry" />
        </mxCell>
        <mxCell id="mGhn0mZwZCy-EaWcP4GE-55" style="edgeStyle=orthogonalEdgeStyle;rounded=0;orthogonalLoop=1;jettySize=auto;html=1;exitX=1;exitY=0.5;exitDx=0;exitDy=0;entryX=0;entryY=0.5;entryDx=0;entryDy=0;" edge="1" parent="WIyWlLk6GJQsqaUBKTNV-1" source="mGhn0mZwZCy-EaWcP4GE-49" target="mGhn0mZwZCy-EaWcP4GE-54">
          <mxGeometry relative="1" as="geometry" />
        </mxCell>
        <mxCell id="mGhn0mZwZCy-EaWcP4GE-49" value="" style="rhombus;whiteSpace=wrap;html=1;" vertex="1" parent="WIyWlLk6GJQsqaUBKTNV-1">
          <mxGeometry x="2100" y="470" width="80" height="80" as="geometry" />
        </mxCell>
        <mxCell id="mGhn0mZwZCy-EaWcP4GE-57" style="edgeStyle=orthogonalEdgeStyle;rounded=0;orthogonalLoop=1;jettySize=auto;html=1;exitX=1;exitY=0.5;exitDx=0;exitDy=0;entryX=0;entryY=0.5;entryDx=0;entryDy=0;" edge="1" parent="WIyWlLk6GJQsqaUBKTNV-1" source="mGhn0mZwZCy-EaWcP4GE-54" target="mGhn0mZwZCy-EaWcP4GE-56">
          <mxGeometry relative="1" as="geometry" />
        </mxCell>
        <mxCell id="mGhn0mZwZCy-EaWcP4GE-54" value="Signed in" style="rounded=1;whiteSpace=wrap;html=1;" vertex="1" parent="WIyWlLk6GJQsqaUBKTNV-1">
          <mxGeometry x="2230" y="480" width="120" height="60" as="geometry" />
        </mxCell>
        <mxCell id="mGhn0mZwZCy-EaWcP4GE-56" value="" style="ellipse;shape=doubleEllipse;whiteSpace=wrap;html=1;aspect=fixed;" vertex="1" parent="WIyWlLk6GJQsqaUBKTNV-1">
          <mxGeometry x="2401" y="470" width="80" height="80" as="geometry" />
        </mxCell>
        <mxCell id="mGhn0mZwZCy-EaWcP4GE-61" style="edgeStyle=orthogonalEdgeStyle;rounded=0;orthogonalLoop=1;jettySize=auto;html=1;exitX=1;exitY=0.5;exitDx=0;exitDy=0;entryX=0.5;entryY=0;entryDx=0;entryDy=0;" edge="1" parent="WIyWlLk6GJQsqaUBKTNV-1" source="mGhn0mZwZCy-EaWcP4GE-58" target="mGhn0mZwZCy-EaWcP4GE-49">
          <mxGeometry relative="1" as="geometry" />
        </mxCell>
        <mxCell id="mGhn0mZwZCy-EaWcP4GE-58" value="" style="rhombus;whiteSpace=wrap;html=1;" vertex="1" parent="WIyWlLk6GJQsqaUBKTNV-1">
          <mxGeometry x="640" y="40" width="80" height="80" as="geometry" />
        </mxCell>
      </root>
    </mxGraphModel>
  </diagram>
</mxfile>
